# xmcd
#
# Track frame offsets: 
#        150
#        6935
#        21868
#        36974
#        50482
#        65715
#        80198
#        93781
#        111047
#        124030
#        142488
#        153746
#        166729
#        183200
#
# Disc length: 2714 seconds
#
# Revision: 0
# Processed by: cddbd v1.5.2PL0 Copyright (c) Steve Scherf et al.
# Submitted via: ExactAudioCopy v1.0b1
#
DISCID=c00a980e
DTITLE=The 49ers - Musaic
DYEAR=2011
DGENRE=Hip-Hop
TTITLE0=Intro
TTITLE1=Brother's Keeper
TTITLE2=Do You Know?! (Feat. DJ Slice)
TTITLE3=I Wish
TTITLE4=We're Live (Feat. DJ Yasu)
TTITLE5=We Get Drunk
TTITLE6=Another 49 Hours
TTITLE7=In The Zone (Feat. 2Mo'key and DJ Chika)
TTITLE8=Every Body Needs Somebody
TTITLE9=I Don't Know Why (Feat. Thurro and Hajar)
TTITLE10=Dreamin'
TTITLE11=More Than Friends
TTITLE12=This Goes Out To You (Feat. Ray-law, Roshi and DJ Slice)
TTITLE13=Reminisce (Feat. Acharu and Tribeca)
EXTD=
EXTT0=
EXTT1=
EXTT2=
EXTT3=
EXTT4=
EXTT5=
EXTT6=
EXTT7=
EXTT8=
EXTT9=
EXTT10=
EXTT11=
EXTT12=
EXTT13=
PLAYORDER=
